<svg xmlns="http://www.w3.org/2000/svg" xmlns:xlink="http://www.w3.org/1999/xlink" width="18px" height="18px" viewBox="0 0 18 18" version="1.1">
<g id="surface1">
<path style="fill:#ffffff;stroke-width:2;stroke-linecap:round;stroke-linejoin:round;stroke:#d50000;stroke-opacity:1;stroke-miterlimit:4;" d="M 9 3 L 15 3 M 3 6 L 21 6 M 19 6 L 18.296875 16.520833 C 18.192708 18.098958 18.140625 18.885417 17.802083 19.484375 C 17.5 20.010417 17.046875 20.4375 16.5 20.697917 C 15.880208 21 15.088542 21 13.510417 21 L 10.489583 21 C 8.911458 21 8.119792 21 7.5 20.697917 C 6.953125 20.4375 6.5 20.010417 6.197917 19.484375 C 5.859375 18.885417 5.807292 18.098958 5.703125 16.520833 L 5 6 M 10 10.5 L 10 15.5 M 14 10.5 L 14 15.5 " transform="matrix(0.75,0,0,0.75,0,0)"/>
</g>
</svg>