<?xml version="1.0" encoding="UTF-8"?>
<svg xmlns="http://www.w3.org/2000/svg" xmlns:xlink="http://www.w3.org/1999/xlink" width="18px" height="18px" viewBox="0 0 18 18" version="1.1">
<g id="surface1">
<path style="fill:none;stroke-width:2;stroke-linecap:round;stroke-linejoin:round;stroke:rgb(100%,100%,100%);stroke-opacity:1;stroke-miterlimit:4;" d="M 21 21 L 13 21 M 2.5 21.5 L 8.046875 19.364583 C 8.40625 19.229167 8.583333 19.161458 8.75 19.072917 C 8.895833 18.994792 9.036458 18.901042 9.166667 18.796875 C 9.317708 18.682292 9.453125 18.546875 9.71875 18.28125 L 21 7 C 22.104167 5.895833 22.104167 4.104167 21 3 C 19.895833 1.895833 18.104167 1.895833 17 3 L 5.71875 14.28125 C 5.453125 14.546875 5.317708 14.682292 5.203125 14.833333 C 5.098958 14.963542 5.005208 15.104167 4.927083 15.25 C 4.838542 15.416667 4.770833 15.59375 4.635417 15.953125 Z M 2.5 21.5 L 4.557292 16.151042 C 4.703125 15.765625 4.78125 15.572917 4.90625 15.484375 C 5.015625 15.411458 5.151042 15.380208 5.286458 15.40625 C 5.4375 15.4375 5.578125 15.578125 5.869792 15.869792 L 8.130208 18.130208 C 8.421875 18.421875 8.5625 18.5625 8.59375 18.713542 C 8.619792 18.848958 8.588542 18.984375 8.515625 19.09375 C 8.427083 19.21875 8.234375 19.296875 7.848958 19.442708 Z M 2.5 21.5 " transform="matrix(0.75,0,0,0.75,0,0)"/>
</g>
</svg>
