<?xml version="1.0" encoding="UTF-8"?>
<svg version="1.1" xmlns="http://www.w3.org/2000/svg" width="50" height="50">
<path d="M0 0 C0.87076172 0.38736328 1.74152344 0.77472656 2.63867188 1.17382812 C3.87907227 1.75874023 3.87907227 1.75874023 5.14453125 2.35546875 C5.89710205 2.70633545 6.64967285 3.05720215 7.42504883 3.41870117 C9.1875 4.8125 9.1875 4.8125 9.94018555 7.46606445 C10.02179932 8.24038818 10.10341309 9.01471191 10.1875 9.8125 C7.2175 9.8125 4.2475 9.8125 1.1875 9.8125 C1.6825 10.8025 1.6825 10.8025 2.1875 11.8125 C2.27150529 13.40697464 2.29477467 15.00490545 2.28515625 16.6015625 C2.28265869 17.44928223 2.28016113 18.29700195 2.27758789 19.17041016 C2.26848389 20.2485498 2.25937988 21.32668945 2.25 22.4375 C2.229375 25.86125 2.20875 29.285 2.1875 32.8125 C-7.7125 32.8125 -17.6125 32.8125 -27.8125 32.8125 C-27.833125 29.38875 -27.85375 25.965 -27.875 22.4375 C-27.884104 21.35936035 -27.89320801 20.2812207 -27.90258789 19.17041016 C-27.90508545 18.32269043 -27.90758301 17.4749707 -27.91015625 16.6015625 C-27.91539307 15.73225098 -27.92062988 14.86293945 -27.92602539 13.96728516 C-27.8125 11.8125 -27.8125 11.8125 -26.8125 9.8125 C-29.7825 9.8125 -32.7525 9.8125 -35.8125 9.8125 C-35.56518555 7.46606445 -35.56518555 7.46606445 -34.8125 4.8125 C-33.05004883 3.41870117 -33.05004883 3.41870117 -30.76953125 2.35546875 C-29.94259766 1.96552734 -29.11566406 1.57558594 -28.26367188 1.17382812 C-27.39291016 0.78646484 -26.52214844 0.39910156 -25.625 0 C-24.34786133 -0.61004883 -24.34786133 -0.61004883 -23.04492188 -1.23242188 C-13.89925867 -5.44098306 -8.87407926 -4.23886753 0 0 Z M-23.8125 11.8125 C-23.83934679 14.45840014 -23.85926357 17.10403096 -23.875 19.75 C-23.88337891 20.50474609 -23.89175781 21.25949219 -23.90039062 22.03710938 C-23.90902441 23.96244313 -23.86474333 25.88785581 -23.8125 27.8125 C-21.65159114 29.97340886 -16.6119153 29.53650131 -13.8125 29.8125 C-13.8125 24.5325 -13.8125 19.2525 -13.8125 13.8125 C-18.0224725 12.128511 -19.60202566 11.57190147 -23.8125 11.8125 Z M-11.8125 13.8125 C-11.8125 19.0925 -11.8125 24.3725 -11.8125 29.8125 C-6.49324678 29.75495508 -6.49324678 29.75495508 -1.8125 27.8125 C-1.73930379 25.11595146 -1.72007463 22.44558542 -1.75 19.75 C-1.75451172 18.99138672 -1.75902344 18.23277344 -1.76367188 17.45117188 C-1.7754932 15.57158129 -1.79342922 13.69203101 -1.8125 11.8125 C-6.02297434 11.57190147 -7.6025275 12.128511 -11.8125 13.8125 Z " fill="#00318c" transform="translate(37.8125,6.1875)"/>
<path d="M0 0 C15.18 0 30.36 0 46 0 C46 1.65 46 3.3 46 5 C30.82 5 15.64 5 0 5 C0 3.35 0 1.7 0 0 Z " fill="#00318c" transform="translate(2,41)"/>
<path d="M0 0 C0.66 0 1.32 0 2 0 C2 6.93 2 13.86 2 21 C1.34 21 0.68 21 0 21 C0 14.07 0 7.14 0 0 Z " fill="#00318c" transform="translate(42,18)"/>
<path d="M0 0 C0.66 0 1.32 0 2 0 C2 6.93 2 13.86 2 21 C1.34 21 0.68 21 0 21 C0 14.07 0 7.14 0 0 Z " fill="#00318c" transform="translate(6,18)"/>
</svg>
